<?xml version="1.0" encoding="UTF-8"?>
<svg width="939px" height="179px" viewBox="0 0 939 179" version="1.1" xmlns="http://www.w3.org/2000/svg" xmlns:xlink="http://www.w3.org/1999/xlink">
    <title>humans logo@1x</title>
    <g id="Page-1" stroke="none" stroke-width="1" fill="none" fill-rule="evenodd">
        <g id="Artboard-Copy-4" transform="translate(-50, -69)" fill="#FFFFFF">
            <path d="M81.4835933,69 L81.4835933,139.867092 C92.836092,125.124668 106.768704,120.727805 121.217339,120.727805 C157.338926,120.727805 173.335628,145.298512 173.335628,182.80117 L173.306878,231.391688 C162.800868,232.521212 152.310205,233.701847 141.835142,234.93334 L141.858246,183.059809 C141.858246,159.782297 129.731713,149.954014 112.960976,149.954014 C94.38416,149.954014 81.4835933,165.730995 81.4835933,184.870282 L81.4520568,242.617653 C70.9515902,244.056059 60.4674842,245.545672 50,247.086232 L50.0062105,69 L81.4835933,69 Z M933.533774,118.917331 C953.400646,118.917331 968.365304,122.796917 983.07195,135.728868 L965.527179,156.41999 C956.496782,147.884902 946.176329,145.039873 934.049796,145.039873 C919.085139,145.039873 910.828776,149.695375 910.828776,157.713185 C910.828776,165.989634 918.311105,170.645136 934.565819,171.679692 C958.560873,173.231526 989.00621,178.662946 989.00621,212.544658 C989.00621,225.4507 982.979828,237.33572 970.975747,245.125224 L970.996851,245.055363 C939.763364,240.600594 908.383337,236.599179 876.863681,233.05801 L876.85538,233.086988 C876.396405,232.628891 875.938346,232.161273 875.481223,231.683945 L890.961903,209.18235 C899.9923,219.269272 920.633207,226.769804 934.82383,227.028443 C946.692352,227.287082 957.786839,221.079745 957.786839,211.768741 C957.786839,202.975014 950.562522,199.354067 932.501728,198.319511 C908.506674,196.509038 879.867416,187.715311 879.867416,158.747741 C879.867416,129.262892 910.312754,118.917331 933.533774,118.917331 Z M803.528312,120.469166 C833.457627,120.469166 857.452681,142.970761 857.452681,183.059809 L857.48227,230.940476 C846.997577,229.82735 836.497646,228.765122 825.98273,227.754046 L825.975299,183.318448 C825.975299,163.920521 815.396834,149.178097 795.27195,149.178097 C775.9211,149.178097 762.762522,165.472355 762.762522,184.870282 L762.786559,222.30883 C752.389693,221.516614 741.978828,220.774339 731.554204,220.082245 L731.54315,122.279639 L759.666386,122.279639 L761.730476,139.608453 C774.631043,126.935141 787.53161,120.469166 803.528312,120.469166 Z M227.485757,122.538278 L227.485757,196.150717 C227.485757,208.548027 231.806584,219.043773 240.178827,225.004809 L240.153778,224.914649 C227.43947,226.01198 214.746587,227.184044 202.075574,228.430399 L202.081777,228.456318 C198.174496,219.521397 196.008374,208.773336 196.008374,196.409356 L196.008374,122.538278 L227.485757,122.538278 Z M321.917905,122.538278 L321.896295,218.911378 C307.777259,219.767231 293.683125,220.715109 279.614488,221.754419 L279.642832,221.856232 C286.611315,215.256791 290.698534,205.409856 290.698534,194.598883 L290.698534,122.538278 L321.917905,122.538278 Z M636.111208,119.434609 C653.139956,119.434609 669.39467,127.452419 676.618987,140.125731 L677.651033,122.538278 L707.838359,122.538278 L707.86446,218.59735 C693.069641,217.72483 678.247584,216.953346 663.398971,216.283582 L663.383354,216.356261 C686.355694,196.202418 678.21102,147.626263 638.949333,147.626263 C618.050415,147.626263 601.279678,161.851409 601.279678,186.163477 C601.279678,198.177841 605.375206,207.792071 612.040553,214.44434 L612.058368,214.377254 C599.385301,214.007599 586.693613,213.712008 573.983726,213.490902 L573.975998,213.520763 C571.266007,205.545901 569.802295,196.418502 569.802295,186.163477 C569.802295,142.194843 598.957576,119.17597 636.111208,119.434609 Z M412.705644,120.210527 C427.928312,120.210527 443.150981,126.417863 450.375299,144.005317 C461.727797,125.900585 476.434443,120.727805 492.947169,120.727805 C529.068756,120.727805 546.871538,142.970761 546.871538,181.249336 L546.896326,213.132848 C537.110128,213.044346 527.31336,213 517.50621,213 L515.394,213.017 L515.394155,181.249336 C515.394155,164.437799 508.427849,150.212653 491.399101,150.212653 C474.370353,150.212653 463.791888,164.955077 463.791888,181.766614 L463.789663,213.444048 C453.277328,213.617966 442.777418,213.842837 432.290171,214.118426 L432.314505,181.766614 C432.314505,164.955077 423.54212,149.695375 406.25536,149.695375 C389.226612,149.695375 379.16417,164.955077 379.16417,181.766614 L379.139769,215.952911 C368.635176,216.402139 358.1438,216.902271 347.665883,217.453068 L347.686788,122.279639 L376.842068,122.279639 L379.16417,137.79798 C385.872465,124.866029 400.579111,120.210527 412.705644,120.210527 Z" id="humans-logo"></path>
        </g>
    </g>
</svg>